<?xml version="1.0" encoding="UTF-8"?>
<svg width="32px" height="32px" viewBox="0 0 32 32" version="1.1" xmlns="http://www.w3.org/2000/svg" xmlns:xlink="http://www.w3.org/1999/xlink">
    <!-- Generator: Sketch 49.3 (51167) - http://www.bohemiancoding.com/sketch -->
    <title>icon / bath@1x</title>
    <desc>Created with Sketch.</desc>
    <defs></defs>
    <g id="icon-/-bath" stroke="none" stroke-width="1" fill="none" fill-rule="evenodd">
        <g id="Group-8">
            <rect id="Rectangle-14" fill-opacity="0" fill="#D8D8D8" x="0" y="0" width="32" height="32"></rect>
            <path d="M26.2857143,18.5714286 L26.2857143,21.1428571 C26.2857143,22.6517933 25.7142914,23.9285662 24.5714286,24.9732143 L24.5714286,27.5714286 C24.5714286,27.6964292 24.5312504,27.7991067 24.4508929,27.8794643 C24.3705353,27.9598218 24.2678578,28 24.1428571,28 L23.2857143,28 C23.1607137,28 23.0580361,27.9598218 22.9776786,27.8794643 C22.897321,27.7991067 22.8571429,27.6964292 22.8571429,27.5714286 L22.8571429,25.9910714 C22.29464,26.187501 21.7232172,26.2857143 21.1428571,26.2857143 L10.8571429,26.2857143 C10.2767828,26.2857143 9.70535996,26.187501 9.14285714,25.9910714 L9.14285714,27.4642857 C9.14285714,27.6160722 9.10044685,27.7433031 9.015625,27.8459821 C8.93080315,27.9486612 8.83035772,28 8.71428571,28 L7.85714286,28 C7.74107085,28 7.64062542,27.9486612 7.55580357,27.8459821 C7.47098172,27.7433031 7.42857143,27.6160722 7.42857143,27.4642857 L7.42857143,24.9732143 C6.28570857,23.9285662 5.71428571,22.6517933 5.71428571,21.1428571 L5.71428571,18.5714286 L26.2857143,18.5714286 Z M13.3080357,12.6919643 C13.3883933,12.7723218 13.4285714,12.8749994 13.4285714,13 C13.4285714,13.1250006 13.3883933,13.2276782 13.3080357,13.3080357 C13.2276782,13.3883933 13.1250006,13.4285714 13,13.4285714 C12.8749994,13.4285714 12.7723218,13.3883933 12.6919643,13.3080357 C12.6116067,13.2276782 12.5714286,13.1250006 12.5714286,13 C12.5714286,12.8749994 12.6116067,12.7723218 12.6919643,12.6919643 C12.7723218,12.6116067 12.8749994,12.5714286 13,12.5714286 C13.1250006,12.5714286 13.2276782,12.6116067 13.3080357,12.6919643 Z M14.1651786,11.8348214 C14.2455361,11.915179 14.2857143,12.0178565 14.2857143,12.1428571 C14.2857143,12.2678578 14.2455361,12.3705353 14.1651786,12.4508929 C14.084821,12.5312504 13.9821435,12.5714286 13.8571429,12.5714286 C13.7321422,12.5714286 13.6294647,12.5312504 13.5491071,12.4508929 C13.4687496,12.3705353 13.4285714,12.2678578 13.4285714,12.1428571 C13.4285714,12.0178565 13.4687496,11.915179 13.5491071,11.8348214 C13.6294647,11.7544639 13.7321422,11.7142857 13.8571429,11.7142857 C13.9821435,11.7142857 14.084821,11.7544639 14.1651786,11.8348214 Z M13.3080357,10.9776786 C13.3883933,11.0580361 13.4285714,11.1607137 13.4285714,11.2857143 C13.4285714,11.4107149 13.3883933,11.5133925 13.3080357,11.59375 C13.2276782,11.6741075 13.1250006,11.7142857 13,11.7142857 C12.8749994,11.7142857 12.7723218,11.6741075 12.6919643,11.59375 C12.6116067,11.5133925 12.5714286,11.4107149 12.5714286,11.2857143 C12.5714286,11.1607137 12.6116067,11.0580361 12.6919643,10.9776786 C12.7723218,10.897321 12.8749994,10.8571429 13,10.8571429 C13.1250006,10.8571429 13.2276782,10.897321 13.3080357,10.9776786 Z M15.0223214,10.9776786 C15.102679,11.0580361 15.1428571,11.1607137 15.1428571,11.2857143 C15.1428571,11.4107149 15.102679,11.5133925 15.0223214,11.59375 C14.9419639,11.6741075 14.8392863,11.7142857 14.7142857,11.7142857 C14.5892851,11.7142857 14.4866075,11.6741075 14.40625,11.59375 C14.3258925,11.5133925 14.2857143,11.4107149 14.2857143,11.2857143 C14.2857143,11.1607137 14.3258925,11.0580361 14.40625,10.9776786 C14.4866075,10.897321 14.5892851,10.8571429 14.7142857,10.8571429 C14.8392863,10.8571429 14.9419639,10.897321 15.0223214,10.9776786 Z M14.1651786,10.1205357 C14.2455361,10.2008933 14.2857143,10.3035708 14.2857143,10.4285714 C14.2857143,10.5535721 14.2455361,10.6562496 14.1651786,10.7366071 C14.084821,10.8169647 13.9821435,10.8571429 13.8571429,10.8571429 C13.7321422,10.8571429 13.6294647,10.8169647 13.5491071,10.7366071 C13.4687496,10.6562496 13.4285714,10.5535721 13.4285714,10.4285714 C13.4285714,10.3035708 13.4687496,10.2008933 13.5491071,10.1205357 C13.6294647,10.0401782 13.7321422,10 13.8571429,10 C13.9821435,10 14.084821,10.0401782 14.1651786,10.1205357 Z M13.3080357,9.26339286 C13.3883933,9.3437504 13.4285714,9.44642795 13.4285714,9.57142857 C13.4285714,9.6964292 13.3883933,9.79910674 13.3080357,9.87946429 C13.2276782,9.95982183 13.1250006,10 13,10 C12.8749994,10 12.7723218,9.95982183 12.6919643,9.87946429 C12.6116067,9.79910674 12.5714286,9.6964292 12.5714286,9.57142857 C12.5714286,9.44642795 12.6116067,9.3437504 12.6919643,9.26339286 C12.7723218,9.18303531 12.8749994,9.14285714 13,9.14285714 C13.1250006,9.14285714 13.2276782,9.18303531 13.3080357,9.26339286 Z M28,16.4285714 L28,17.2857143 C28,17.4107149 27.9598218,17.5133925 27.8794643,17.59375 C27.7991067,17.6741075 27.6964292,17.7142857 27.5714286,17.7142857 L4.42857143,17.7142857 C4.3035708,17.7142857 4.20089326,17.6741075 4.12053571,17.59375 C4.04017817,17.5133925 4,17.4107149 4,17.2857143 L4,16.4285714 C4,16.3035708 4.04017817,16.2008933 4.12053571,16.1205357 C4.20089326,16.0401782 4.3035708,16 4.42857143,16 L5.71428571,16 L5.71428571,7.42857143 C5.71428571,6.48213812 6.04910379,5.67411049 6.71875,5.00446429 C7.38839621,4.33481808 8.19642384,4 9.14285714,4 C10.1071477,4 10.928568,4.3482108 11.6071429,5.04464286 C12.0178592,4.87499915 12.4553548,4.82142826 12.9196429,4.88392857 C13.3839309,4.94642888 13.7991053,5.12053429 14.1651786,5.40625 L14.4598214,5.11160714 C14.5580362,5.01339237 14.6562495,5.01339237 14.7544643,5.11160714 L15.3169643,5.67410714 C15.4151791,5.77232192 15.4151791,5.87053522 15.3169643,5.96875 L11.1116071,10.1741071 C11.0133924,10.2723219 10.9151791,10.2723219 10.8169643,10.1741071 L10.2544643,9.61160714 C10.1562495,9.51339237 10.1562495,9.41517906 10.2544643,9.31696429 L10.5491071,9.02232143 C10.227677,8.61160509 10.0468752,8.14732402 10.0066964,7.62946429 C9.96651766,7.11160455 10.0714273,6.62946652 10.3214286,6.18303571 C9.99106978,5.87053415 9.59821656,5.71428571 9.14285714,5.71428571 C8.66964049,5.71428571 8.26562667,5.88169475 7.93080357,6.21651786 C7.59598047,6.55134096 7.42857143,6.95535478 7.42857143,7.42857143 L7.42857143,16 L27.5714286,16 C27.6964292,16 27.7991067,16.0401782 27.8794643,16.1205357 C27.9598218,16.2008933 28,16.3035708 28,16.4285714 Z M15.8794643,10.1205357 C15.9598218,10.2008933 16,10.3035708 16,10.4285714 C16,10.5535721 15.9598218,10.6562496 15.8794643,10.7366071 C15.7991067,10.8169647 15.6964292,10.8571429 15.5714286,10.8571429 C15.4464279,10.8571429 15.3437504,10.8169647 15.2633929,10.7366071 C15.1830353,10.6562496 15.1428571,10.5535721 15.1428571,10.4285714 C15.1428571,10.3035708 15.1830353,10.2008933 15.2633929,10.1205357 C15.3437504,10.0401782 15.4464279,10 15.5714286,10 C15.6964292,10 15.7991067,10.0401782 15.8794643,10.1205357 Z M15.0223214,9.26339286 C15.102679,9.3437504 15.1428571,9.44642795 15.1428571,9.57142857 C15.1428571,9.6964292 15.102679,9.79910674 15.0223214,9.87946429 C14.9419639,9.95982183 14.8392863,10 14.7142857,10 C14.5892851,10 14.4866075,9.95982183 14.40625,9.87946429 C14.3258925,9.79910674 14.2857143,9.6964292 14.2857143,9.57142857 C14.2857143,9.44642795 14.3258925,9.3437504 14.40625,9.26339286 C14.4866075,9.18303531 14.5892851,9.14285714 14.7142857,9.14285714 C14.8392863,9.14285714 14.9419639,9.18303531 15.0223214,9.26339286 Z M14.1651786,8.40625 C14.2455361,8.48660754 14.2857143,8.58928509 14.2857143,8.71428571 C14.2857143,8.83928634 14.2455361,8.94196388 14.1651786,9.02232143 C14.084821,9.10267897 13.9821435,9.14285714 13.8571429,9.14285714 C13.7321422,9.14285714 13.6294647,9.10267897 13.5491071,9.02232143 C13.4687496,8.94196388 13.4285714,8.83928634 13.4285714,8.71428571 C13.4285714,8.58928509 13.4687496,8.48660754 13.5491071,8.40625 C13.6294647,8.32589246 13.7321422,8.28571429 13.8571429,8.28571429 C13.9821435,8.28571429 14.084821,8.32589246 14.1651786,8.40625 Z M16.7366071,9.26339286 C16.8169647,9.3437504 16.8571429,9.44642795 16.8571429,9.57142857 C16.8571429,9.6964292 16.8169647,9.79910674 16.7366071,9.87946429 C16.6562496,9.95982183 16.5535721,10 16.4285714,10 C16.3035708,10 16.2008933,9.95982183 16.1205357,9.87946429 C16.0401782,9.79910674 16,9.6964292 16,9.57142857 C16,9.44642795 16.0401782,9.3437504 16.1205357,9.26339286 C16.2008933,9.18303531 16.3035708,9.14285714 16.4285714,9.14285714 C16.5535721,9.14285714 16.6562496,9.18303531 16.7366071,9.26339286 Z M15.8794643,8.40625 C15.9598218,8.48660754 16,8.58928509 16,8.71428571 C16,8.83928634 15.9598218,8.94196388 15.8794643,9.02232143 C15.7991067,9.10267897 15.6964292,9.14285714 15.5714286,9.14285714 C15.4464279,9.14285714 15.3437504,9.10267897 15.2633929,9.02232143 C15.1830353,8.94196388 15.1428571,8.83928634 15.1428571,8.71428571 C15.1428571,8.58928509 15.1830353,8.48660754 15.2633929,8.40625 C15.3437504,8.32589246 15.4464279,8.28571429 15.5714286,8.28571429 C15.6964292,8.28571429 15.7991067,8.32589246 15.8794643,8.40625 Z M15.0223214,7.54910714 C15.102679,7.62946469 15.1428571,7.73214223 15.1428571,7.85714286 C15.1428571,7.98214348 15.102679,8.08482103 15.0223214,8.16517857 C14.9419639,8.24553612 14.8392863,8.28571429 14.7142857,8.28571429 C14.5892851,8.28571429 14.4866075,8.24553612 14.40625,8.16517857 C14.3258925,8.08482103 14.2857143,7.98214348 14.2857143,7.85714286 C14.2857143,7.73214223 14.3258925,7.62946469 14.40625,7.54910714 C14.4866075,7.4687496 14.5892851,7.42857143 14.7142857,7.42857143 C14.8392863,7.42857143 14.9419639,7.4687496 15.0223214,7.54910714 Z M17.59375,8.40625 C17.6741075,8.48660754 17.7142857,8.58928509 17.7142857,8.71428571 C17.7142857,8.83928634 17.6741075,8.94196388 17.59375,9.02232143 C17.5133925,9.10267897 17.4107149,9.14285714 17.2857143,9.14285714 C17.1607137,9.14285714 17.0580361,9.10267897 16.9776786,9.02232143 C16.897321,8.94196388 16.8571429,8.83928634 16.8571429,8.71428571 C16.8571429,8.58928509 16.897321,8.48660754 16.9776786,8.40625 C17.0580361,8.32589246 17.1607137,8.28571429 17.2857143,8.28571429 C17.4107149,8.28571429 17.5133925,8.32589246 17.59375,8.40625 Z M16.7366071,7.54910714 C16.8169647,7.62946469 16.8571429,7.73214223 16.8571429,7.85714286 C16.8571429,7.98214348 16.8169647,8.08482103 16.7366071,8.16517857 C16.6562496,8.24553612 16.5535721,8.28571429 16.4285714,8.28571429 C16.3035708,8.28571429 16.2008933,8.24553612 16.1205357,8.16517857 C16.0401782,8.08482103 16,7.98214348 16,7.85714286 C16,7.73214223 16.0401782,7.62946469 16.1205357,7.54910714 C16.2008933,7.4687496 16.3035708,7.42857143 16.4285714,7.42857143 C16.5535721,7.42857143 16.6562496,7.4687496 16.7366071,7.54910714 Z M18.4508929,7.54910714 C18.5312504,7.62946469 18.5714286,7.73214223 18.5714286,7.85714286 C18.5714286,7.98214348 18.5312504,8.08482103 18.4508929,8.16517857 C18.3705353,8.24553612 18.2678578,8.28571429 18.1428571,8.28571429 C18.0178565,8.28571429 17.915179,8.24553612 17.8348214,8.16517857 C17.7544639,8.08482103 17.7142857,7.98214348 17.7142857,7.85714286 C17.7142857,7.73214223 17.7544639,7.62946469 17.8348214,7.54910714 C17.915179,7.4687496 18.0178565,7.42857143 18.1428571,7.42857143 C18.2678578,7.42857143 18.3705353,7.4687496 18.4508929,7.54910714 Z" id="ï‹" fill="#A4AFB8"></path>
        </g>
    </g>
</svg>