<?xml version="1.0" encoding="UTF-8"?>
<svg width="32px" height="32px" viewBox="0 0 32 32" version="1.1" xmlns="http://www.w3.org/2000/svg" xmlns:xlink="http://www.w3.org/1999/xlink">
    <!-- Generator: Sketch 49.3 (51167) - http://www.bohemiancoding.com/sketch -->
    <title>icon / bed@1x</title>
    <desc>Created with Sketch.</desc>
    <defs></defs>
    <g id="icon-/-bed" stroke="none" stroke-width="1" fill="none" fill-rule="evenodd">
        <g id="Group-8">
            <rect id="Rectangle-14" fill-opacity="0" fill="#D8D8D8" x="0" y="0" width="32" height="32"></rect>
            <path d="M7,9.75 L7,18 L27.25,18 C27.453126,18 27.6289055,18.074218 27.7773437,18.2226563 C27.925782,18.3710945 28,18.546874 28,18.75 L28,24 L25,24 L25,21 L7,21 L7,24 L4,24 L4,9.75 C4,9.54687398 4.07421801,9.37109449 4.22265625,9.22265625 C4.37109449,9.07421801 4.54687398,9 4.75,9 L6.25,9 C6.45312602,9 6.62890551,9.07421801 6.77734375,9.22265625 C6.92578199,9.37109449 7,9.54687398 7,9.75 Z M12.8710938,16.3710937 C12.2851533,16.9570342 11.5781291,17.25 10.75,17.25 C9.92187086,17.25 9.21484668,16.9570342 8.62890625,16.3710937 C8.04296582,15.7851533 7.75,15.0781291 7.75,14.25 C7.75,13.4218709 8.04296582,12.7148467 8.62890625,12.1289062 C9.21484668,11.5429658 9.92187086,11.25 10.75,11.25 C11.5781291,11.25 12.2851533,11.5429658 12.8710938,12.1289062 C13.4570342,12.7148467 13.75,13.4218709 13.75,14.25 C13.75,15.0781291 13.4570342,15.7851533 12.8710938,16.3710937 Z M28,17.25 L14.5,17.25 L14.5,12.75 C14.5,12.546874 14.574218,12.3710945 14.7226563,12.2226562 C14.8710945,12.074218 15.046874,12 15.25,12 L23.5,12 C24.7421937,12 25.80273,12.4394487 26.6816406,13.3183594 C27.5605513,14.19727 28,15.2578063 28,16.5 L28,17.25 Z" id="" fill="#A4AFB8"></path>
        </g>
    </g>
</svg>