<?xml version="1.0" encoding="UTF-8"?>
<svg width="32px" height="32px" viewBox="0 0 32 32" version="1.1" xmlns="http://www.w3.org/2000/svg" xmlns:xlink="http://www.w3.org/1999/xlink">
    <!-- Generator: Sketch 49.3 (51167) - http://www.bohemiancoding.com/sketch -->
    <title>icon / car@1x</title>
    <desc>Created with Sketch.</desc>
    <defs></defs>
    <g id="icon-/-car" stroke="none" stroke-width="1" fill="none" fill-rule="evenodd">
        <g id="Group-8" fill="#D8D8D8" fill-opacity="0">
            <rect id="Rectangle-14" x="0" y="0" width="32" height="32"></rect>
        </g>
        <path d="M9.07421875,19.5742187 C9.44140809,19.2070294 9.625,18.7656276 9.625,18.25 C9.625,17.7343724 9.44140809,17.2929706 9.07421875,16.9257812 C8.70702941,16.5585919 8.26562758,16.375 7.75,16.375 C7.23437242,16.375 6.79297059,16.5585919 6.42578125,16.9257812 C6.05859191,17.2929706 5.875,17.7343724 5.875,18.25 C5.875,18.7656276 6.05859191,19.2070294 6.42578125,19.5742187 C6.79297059,19.9414081 7.23437242,20.125 7.75,20.125 C8.26562758,20.125 8.70702941,19.9414081 9.07421875,19.5742187 Z M10.046875,14.5 L21.953125,14.5 L20.9101563,10.3164062 C20.8945312,10.2539059 20.8398442,10.1855472 20.7460938,10.1113281 C20.6523433,10.037109 20.5703129,10 20.5,10 L11.5,10 C11.4296871,10 11.3476567,10.037109 11.2539062,10.1113281 C11.1601558,10.1855472 11.1054688,10.2539059 11.0898437,10.3164062 L10.046875,14.5 Z M25.5742187,19.5742187 C25.9414081,19.2070294 26.125,18.7656276 26.125,18.25 C26.125,17.7343724 25.9414081,17.2929706 25.5742187,16.9257812 C25.2070294,16.5585919 24.7656276,16.375 24.25,16.375 C23.7343724,16.375 23.2929706,16.5585919 22.9257813,16.9257812 C22.5585919,17.2929706 22.375,17.7343724 22.375,18.25 C22.375,18.7656276 22.5585919,19.2070294 22.9257813,19.5742187 C23.2929706,19.9414081 23.7343724,20.125 24.25,20.125 C24.7656276,20.125 25.2070294,19.9414081 25.5742187,19.5742187 Z M28,17.125 L28,21.625 C28,21.7343755 27.9648441,21.8242184 27.8945312,21.8945312 C27.8242184,21.9648441 27.7343755,22 27.625,22 L26.5,22 L26.5,23.5 C26.5,24.1250031 26.2812522,24.6562478 25.84375,25.09375 C25.4062478,25.5312522 24.8750031,25.75 24.25,25.75 C23.6249969,25.75 23.0937522,25.5312522 22.65625,25.09375 C22.2187478,24.6562478 22,24.1250031 22,23.5 L22,22 L10,22 L10,23.5 C10,24.1250031 9.78125219,24.6562478 9.34375,25.09375 C8.90624781,25.5312522 8.37500312,25.75 7.75,25.75 C7.12499687,25.75 6.59375219,25.5312522 6.15625,25.09375 C5.71874781,24.6562478 5.5,24.1250031 5.5,23.5 L5.5,22 L4.375,22 C4.26562445,22 4.1757816,21.9648441 4.10546875,21.8945312 C4.0351559,21.8242184 4,21.7343755 4,21.625 L4,17.125 C4,16.3984339 4.25585682,15.7792994 4.76757812,15.2675781 C5.27929943,14.7558568 5.89843387,14.5 6.625,14.5 L6.953125,14.5 L8.18359375,9.58984375 C8.36328215,8.85546508 8.76952809,8.24023686 9.40234375,7.74414063 C10.0351594,7.24804439 10.7343712,7 11.5,7 L20.5,7 C21.2656288,7 21.9648406,7.24804439 22.5976563,7.74414063 C23.2304719,8.24023686 23.6367179,8.85546508 23.8164063,9.58984375 L25.046875,14.5 L25.375,14.5 C26.1015661,14.5 26.7207006,14.7558568 27.2324219,15.2675781 C27.7441432,15.7792994 28,16.3984339 28,17.125 Z" id="" fill="#A4AFB8"></path>
    </g>
</svg>