<?xml version="1.0" encoding="UTF-8"?>
<svg width="32px" height="32px" viewBox="0 0 32 32" version="1.1" xmlns="http://www.w3.org/2000/svg" xmlns:xlink="http://www.w3.org/1999/xlink">
    <!-- Generator: Sketch 49.3 (51167) - http://www.bohemiancoding.com/sketch -->
    <title>Components / icon / ui / email@1x</title>
    <desc>Created with Sketch.</desc>
    <defs></defs>
    <g id="Components-/-icon-/-ui-/-email" stroke="none" stroke-width="1" fill="none" fill-rule="evenodd">
        <g id="Group" transform="translate(3.000000, 5.000000)" fill="#004A7F">
            <path d="M5.46979452,9.1777193 C7.12382192,10.3068421 8.39087671,11.1763158 9.27113699,11.7859649 C9.36783562,11.852807 9.57334247,11.9980702 9.88765753,12.2219298 C10.2019726,12.4459649 10.4632192,12.627193 10.6710411,12.7652632 C10.8790411,12.9033333 11.1304932,13.0582456 11.4255753,13.2296491 C11.7206575,13.4010526 11.9988219,13.5298246 12.2598904,13.6152632 C12.521137,13.7012281 12.7629726,13.7438596 12.9853973,13.7438596 C13.2370274,13.7438596 13.478863,13.7012281 13.7401096,13.6152632 C14.0011781,13.5298246 14.2795205,13.4008772 14.5744247,13.2296491 C14.8693288,13.0580702 15.1207808,12.9033333 15.3287808,12.7652632 C15.5367808,12.627193 15.7978493,12.4459649 16.1121644,12.2219298 C16.4264795,11.9978947 16.6321644,11.852807 16.728863,11.7859649 C17.6185616,11.1761404 19.8821644,9.6277193 23.5189589,7.14052632 C24.2250548,6.65473684 24.814863,6.06859649 25.2889178,5.38245614 C25.7631507,4.69666667 26,3.97719298 26,3.22438596 C26,2.5954386 25.7700959,2.05701754 25.3106438,1.60912281 C24.8511918,1.16122807 24.3069726,0.937368421 23.6785205,0.937368421 L2.32130137,0.937368421 C1.57656164,0.937368421 1.00349315,1.18508772 0.60209589,1.68052632 C0.20069863,2.17614035 0,2.79561404 0,3.53877193 C0,4.13912281 0.266054795,4.78964912 0.797986301,5.49 C1.32991781,6.19035088 1.89586301,6.74070175 2.49546575,7.14087719 C2.82438356,7.36947368 3.81576712,8.04859649 5.46979452,9.1777193 Z" id="Shape"></path>
            <path d="M17.3238356,13.6014035 C16.7724932,14.0015789 16.3251507,14.3138596 15.9816301,14.5375439 C15.6382877,14.7615789 15.1813288,14.9901754 14.6105753,15.2236842 C14.04,15.457193 13.5080685,15.5738596 13.0147808,15.5738596 C12.4921096,15.5738596 11.96,15.457193 11.3894247,15.2236842 C10.8188493,14.9901754 10.3617123,14.7615789 10.0183699,14.5375439 C9.6750274,14.3138596 9.22768493,14.0015789 8.67634247,13.6014035 C7.37046575,12.6580702 4.96689041,11.0142105 1.46543836,8.67017544 C0.91409589,8.30824561 0.425616438,7.89350877 0,7.42666667 L0,18.7754386 C0,19.4045614 0.227232877,19.942807 0.681876712,20.3907018 C1.13652055,20.8387719 1.68305479,21.0626316 2.32147945,21.0626316 L23.6786986,21.0626316 C24.3169452,21.0626316 24.8634795,20.8387719 25.3181233,20.3907018 C25.7729452,19.9426316 26,19.4045614 26,18.7754386 L26,7.42666667 C25.584,7.88385965 25.1005068,8.29859649 24.5489863,8.67017544 C21.3766301,10.7854386 18.9678904,12.4292982 17.3238356,13.6014035 Z" id="Shape"></path>
        </g>
        <polygon id="Shape" points="0 0 32 0 32 32 0 32"></polygon>
    </g>
</svg>