<?xml version="1.0" encoding="UTF-8"?>
<svg width="32px" height="32px" viewBox="0 0 32 32" version="1.1" xmlns="http://www.w3.org/2000/svg" xmlns:xlink="http://www.w3.org/1999/xlink">
    <!-- Generator: Sketch 49.3 (51167) - http://www.bohemiancoding.com/sketch -->
    <title>Components / icon / Error@1x</title>
    <desc>Created with Sketch.</desc>
    <defs></defs>
    <g id="Components-/-icon-/-Error" stroke="none" stroke-width="1" fill="none" fill-rule="evenodd">
        <path d="M17.8550436,23.9272257 L17.8550436,21.1736454 C17.8550436,21.0383811 17.809151,20.9248575 17.7173645,20.833071 C17.6255781,20.7412845 17.5168852,20.695392 17.3912827,20.695392 L14.6087173,20.695392 C14.4831148,20.695392 14.3744219,20.7412845 14.2826355,20.833071 C14.190849,20.9248575 14.1449564,21.0383811 14.1449564,21.1736454 L14.1449564,23.9272257 C14.1449564,24.06249 14.190849,24.1760136 14.2826355,24.2678001 C14.3744219,24.3595866 14.4831148,24.4054791 14.6087173,24.4054791 L17.3912827,24.4054791 C17.5168852,24.4054791 17.6255781,24.3595866 17.7173645,24.2678001 C17.809151,24.1760136 17.8550436,24.06249 17.8550436,23.9272257 Z M17.8260585,18.5070203 L18.086924,11.8549501 C18.086924,11.7390093 18.0386161,11.6472242 17.9419987,11.579592 C17.8163962,11.473313 17.7004571,11.4201742 17.5941781,11.4201742 L14.4058219,11.4201742 C14.2995429,11.4201742 14.1836038,11.473313 14.0580013,11.579592 C13.9613839,11.6472242 13.913076,11.7486708 13.913076,11.8839351 L14.159449,18.5070203 C14.159449,18.6036376 14.2077569,18.6833457 14.3043743,18.746147 C14.4009916,18.8089483 14.5169306,18.8403484 14.6521949,18.8403484 L17.3333126,18.8403484 C17.4685768,18.8403484 17.5821005,18.8089483 17.673887,18.746147 C17.7656734,18.6833457 17.8163968,18.6036376 17.8260585,18.5070203 Z M17.6231631,4.97099936 L28.7534244,25.3764785 C29.0915851,25.9851677 29.0819235,26.5938478 28.7244394,27.202537 C28.5601899,27.4827272 28.335558,27.7049438 28.0505368,27.8691932 C27.7655157,28.0334427 27.4587603,28.1155662 27.1302613,28.1155662 L4.86973867,28.1155662 C4.54123973,28.1155662 4.23448429,28.0334427 3.94946316,27.8691932 C3.66444202,27.7049438 3.43981008,27.4827272 3.27556062,27.202537 C2.91807648,26.5938478 2.90841489,25.9851677 3.24657556,25.3764785 L14.3768369,4.97099936 C14.5410864,4.67148562 14.7681337,4.4347767 15.0579857,4.2608655 C15.3478377,4.0869543 15.6618393,4 16,4 C16.3381607,4 16.6521623,4.0869543 16.9420143,4.2608655 C17.2318663,4.4347767 17.4589136,4.67148562 17.6231631,4.97099936 Z" id="ï±" fill="#AC0018"></path>
    </g>
</svg>