<?xml version="1.0" encoding="UTF-8"?>
<svg width="94px" height="88px" viewBox="0 0 94 88" version="1.1" xmlns="http://www.w3.org/2000/svg" xmlns:xlink="http://www.w3.org/1999/xlink">
    <!-- Generator: Sketch 49.3 (51167) - http://www.bohemiancoding.com/sketch -->
    <title>Icon-chat</title>
    <desc>Created with Sketch.</desc>
    <defs></defs>
    <g id="Symbols" stroke="none" stroke-width="1" fill="none" fill-rule="evenodd">
        <g id="Criteria-/-Image-/-100-/-explain" transform="translate(-3.000000, -6.000000)">
            <g id="Icon-chat">
                <rect id="background" x="0" y="0" width="100" height="100"></rect>
                <g id="Page-1" transform="translate(5.000000, 8.000000)" stroke="#0096FF" stroke-width="3">
                    <path d="M84.1304348,13.6956522 L45,13.6956522 C41.7580435,13.6956522 39.1304348,16.3232609 39.1304348,19.5652174 L39.1304348,52.826087 C39.1304348,56.0680435 41.7580435,58.6956522 45,58.6956522 L67.1145652,58.6956522 L76.8463043,68.8676087 C78.0671739,70.1432609 80.2173913,69.2804348 80.2173913,67.5156522 L80.2173913,58.6956522 L84.1304348,58.6956522 C87.3723913,58.6956522 90,56.0680435 90,52.826087 L90,19.5652174 C90,16.3232609 87.3723913,13.6956522 84.1304348,13.6956522 Z" id="Stroke-1"></path>
                    <path d="M70.4347826,19.5652174 L70.4347826,39.1304348 C70.4347826,42.3723913 67.8071739,45 64.5652174,45 L45,45" id="Stroke-3"></path>
                    <path d="M9.7826087,27.3913043 L9.7826087,5.86956522 C9.7826087,2.6276087 12.4102174,-7.10542736e-15 15.6521739,-7.10542736e-15 L64.5652174,-7.10542736e-15 C67.8071739,-7.10542736e-15 70.4347826,2.6276087 70.4347826,5.86956522 L70.4347826,13.6956522" id="Stroke-5"></path>
                    <path d="M39.1304348,45 L33.341087,45 L22.901087,55.3793478 C21.6665217,56.606087 19.5652174,55.7315217 19.5652174,53.9921739 L19.5652174,45 L15.6521739,45 C12.4102174,45 9.7826087,42.3723913 9.7826087,39.1304348 L9.7826087,33.2608696" id="Stroke-7"></path>
                    <path d="M58.6956522,58.6956522 L58.6956522,66.5217391 C58.6956522,69.7636957 56.0680435,72.3913043 52.826087,72.3913043 L30.7115217,72.3913043 L16.878913,83.523913 C15.5993478,84.555 13.6956522,83.6432609 13.6956522,81.9997826 L13.6956522,72.3913043 L5.86956522,72.3913043 C2.6276087,72.3913043 0,69.7636957 0,66.5217391 L0,33.2608696 C0,30.018913 2.6276087,27.3913043 5.86956522,27.3913043 L39.1304348,27.3913043" id="Stroke-9"></path>
                    <path d="M58.6956522,45 L58.6956522,52.826087" id="Stroke-11"></path>
                    <path d="M45,27.3913043 L52.826087,27.3913043 C56.0680435,27.3913043 58.6956522,30.018913 58.6956522,33.2608696 L58.6956522,39.1304348" id="Stroke-13"></path>
                </g>
            </g>
        </g>
    </g>
</svg>