<?xml version="1.0" encoding="UTF-8"?>
<svg width="103px" height="79px" viewBox="0 0 103 79" version="1.1" xmlns="http://www.w3.org/2000/svg" xmlns:xlink="http://www.w3.org/1999/xlink">
    <!-- Generator: Sketch 49.3 (51167) - http://www.bohemiancoding.com/sketch -->
    <title>Icon-hand</title>
    <desc>Created with Sketch.</desc>
    <defs></defs>
    <g id="Symbols" stroke="none" stroke-width="1" fill="none" fill-rule="evenodd">
        <g id="Criteria-/-Image-/-100-/-Partner" transform="translate(2.000000, -14.000000)">
            <g id="Icon-hand">
                <rect id="background" x="0" y="0" width="100" height="100"></rect>
                <g id="icon-lines" transform="translate(0.000000, 15.000000)" stroke="#0096FF" stroke-linejoin="round" stroke-width="3">
                    <path d="M83.4349566,0.564831614 C83.4349566,0.564831614 75.9864642,8.63652231 75.1102304,8.77225536 C72.5609742,9.16775338 61.1255389,3.78757615 58.8146183,3.21422103 C56.5060343,2.64086591 33.4622537,9.96811033 31.7518453,12.7459574 C30.0414369,15.5284849 36.8456845,22.0951562 43.3999133,21.2596959 C49.9518055,20.4265758 59.6861789,16.9349601 62.5205032,19.7759932 C67.1189781,24.381556 80.5335335,38.4743908 86.872793,44.0768894 C92.1886114,48.7784014 94.5769129,34.7097666 99.5972383,29.007232" id="Stroke-1"></path>
                    <path d="M55.7033588,70.1106838 L48.4377033,62.8450283" id="Stroke-3"></path>
                    <path d="M69.0237272,66.477856 L55.7033588,51.946545" id="Stroke-5"></path>
                    <path d="M81.1331531,59.2122005 L65.3908995,42.2590044" id="Stroke-7"></path>
                    <path d="M29.3531447,69.9574008 C31.1721907,71.7763682 34.120862,71.7763682 35.939908,69.9574008 L40.0787618,65.818726 C41.8395797,64.0579842 41.3877296,61.1793112 39.3381003,59.1297705 C37.2838127,57.0755717 34.4050152,56.6237412 32.6465264,58.3844829 C34.4050152,56.6237412 33.9554942,53.7473971 31.9035357,51.6955274 C29.8492481,49.6413286 26.9727797,49.1918271 25.2142909,50.9525689 C26.9727797,49.1918271 26.5232587,46.315483 24.4689712,44.2636133 C22.4170127,42.2094146 19.5405443,41.759913 17.7797263,43.5183258 C19.5405443,41.759913 19.0886942,38.88124 17.0367357,36.8293702 C14.9847773,34.7775005 12.1059797,34.32567 10.3474909,36.0864117 L6.20630801,40.2250865 C4.38959111,42.0440539 4.38959111,44.9925977 6.20630801,46.8115651 L29.3531447,69.9574008 Z" id="Stroke-9"></path>
                    <path d="M38.7501627,68.353502 L40.2084112,69.8542975 L43.7849824,73.4885537 C49.2458073,79.0350756 54.3414849,74.9536727 56.9700775,70.3537699 C61.9697869,72.9724323 67.5593496,70.0778709 69.5465937,66.1272822 C75.8734731,69.3024995 81.4138815,62.73087 80.959788,59.367756 C87.7945967,58.9586643 92.3893671,51.0622438 87.6986285,44.6808895" id="Stroke-11"></path>
                    <path d="M0,27.7276934 L5.2664379,33.0897471 C5.82612021,34.9788175 7.1230052,37.0083573 8.47659808,38.6261766" id="Stroke-13"></path>
                    <path d="M32.6954497,13.1963824 L18.4075434,1.40651861" id="Stroke-15"></path>
                    <path d="M18.1641387,43.4699469 L10.8984832,50.7356024" id="Stroke-17"></path>
                    <path d="M18.1641387,43.4699469 L10.8984832,50.7356024" id="Stroke-19"></path>
                    <path d="M25.4297942,50.7356024 L18.1641387,58.0012579" id="Stroke-21"></path>
                    <path d="M32.6954497,58.0012579 L25.4297942,65.2669134" id="Stroke-23"></path>
                </g>
            </g>
        </g>
    </g>
</svg>