<?xml version="1.0" encoding="UTF-8"?>
<svg width="94px" height="98px" viewBox="0 0 94 98" version="1.1" xmlns="http://www.w3.org/2000/svg" xmlns:xlink="http://www.w3.org/1999/xlink">
    <!-- Generator: Sketch 49.3 (51167) - http://www.bohemiancoding.com/sketch -->
    <title>icon-m2</title>
    <desc>Created with Sketch.</desc>
    <defs></defs>
    <g id="Symbols" stroke="none" stroke-width="1" fill="none" fill-rule="evenodd">
        <g id="Criteria-/-Image-/-100-/-space" transform="translate(-3.000000, -1.000000)" stroke="#0096FF" stroke-width="3">
            <g id="icon-m2" transform="translate(5.000000, 3.000000)">
                <polygon id="Stroke-1" stroke-linejoin="round" points="29.25 20.25 29.25 0 90 0 90 76.5 67.5 76.5 67.5 94.5 0 94.5 0 20.25"></polygon>
                <path d="M24.75,54 C24.75,50.2875 27.7875,47.25 31.5,47.25 C35.2125,47.25 38.25,50.2875 38.25,54 L38.25,67.5" id="Stroke-3"></path>
                <path d="M38.25,54 C38.25,50.2875 41.2875,47.25 45,47.25 C48.7125,47.25 51.75,50.2875 51.75,54 L51.75,67.5" id="Stroke-5"></path>
                <path d="M24.75,67.5 L24.75,45" id="Stroke-7"></path>
                <path d="M67.4957497,38.25 L67.4957497,42.75 L56.2499721,42.75 L56.2499721,40.5 C62.9974387,33.81075 65.3613011,32.418 66.5061213,30.12975 C67.3585512,28.41975 68.0602877,23.48775 64.2254776,22.15125 C61.092404,21.05775 57.1721259,21.9375 56.17575,26.21025" id="Stroke-9" stroke-linejoin="round"></path>
            </g>
        </g>
    </g>
</svg>