<?xml version="1.0" encoding="UTF-8"?>
<svg width="94px" height="90px" viewBox="0 0 94 90" version="1.1" xmlns="http://www.w3.org/2000/svg" xmlns:xlink="http://www.w3.org/1999/xlink">
    <!-- Generator: Sketch 49.3 (51167) - http://www.bohemiancoding.com/sketch -->
    <title>Icon-tools</title>
    <desc>Created with Sketch.</desc>
    <defs></defs>
    <g id="Symbols" stroke="none" stroke-width="1" fill="none" fill-rule="evenodd">
        <g id="Criteria-/-Image-/-100-/-stage" transform="translate(-3.000000, -5.000000)">
            <g id="Icon-tools">
                <rect id="background" x="0" y="0" width="100" height="100"></rect>
                <g id="Page-1" transform="translate(5.000000, 7.000000)" stroke="#0096FF" stroke-linejoin="round" stroke-width="3">
                    <path d="M9.78280435,54.7826087 C9.78280435,54.2523913 7.88693478,53.9804348 6.67193478,53.9804348 C2.98584783,53.9804348 0.000195652174,56.9680435 0.000195652174,60.6521739 L0.000195652174,11.7391304 C0.000195652174,8.055 2.98584783,5.86956522 6.67193478,5.86956522 C7.88693478,5.86956522 9.78280435,6.44478261 9.78280435,7.82608696 L9.78280435,54.7826087 Z" id="Stroke-1"></path>
                    <path d="M80.217587,54.7826087 C80.217587,54.2523913 82.1134565,53.9804348 83.3284565,53.9804348 C87.0145435,53.9804348 90.0001957,56.9680435 90.0001957,60.6521739 L90.0001957,11.7391304 C90.0001957,8.055 87.0145435,5.86956522 83.3284565,5.86956522 C82.1134565,5.86956522 80.217587,6.44478261 80.217587,7.82608696 L80.217587,54.7826087 Z" id="Stroke-3"></path>
                    <path d="M54.7828043,13.6956522 L11.7393261,13.6956522" id="Stroke-5"></path>
                    <path d="M78.2610652,13.6956522 L68.4784565,13.6956522" id="Stroke-7"></path>
                    <path d="M90.0001957,60.6521739 C90.0001957,64.9741304 86.4960652,68.4782609 82.1741087,68.4782609 L7.82628261,68.4782609 C3.50432609,68.4782609 0.000195652174,64.9741304 0.000195652174,60.6521739" id="Stroke-9"></path>
                    <polygon id="Stroke-11" points="17.6088913 50.8695652 17.6088913 52.826087 70.4349783 52.826087 70.4349783 0 68.4784565 0"></polygon>
                    <path d="M60.6523696,46.9565217 L60.6523696,52.826087" id="Stroke-13"></path>
                    <path d="M50.8697609,46.9565217 L50.8697609,52.826087" id="Stroke-15"></path>
                    <path d="M41.0871522,46.9565217 L41.0871522,52.826087" id="Stroke-17"></path>
                    <path d="M31.3045435,46.9565217 L31.3045435,52.826087" id="Stroke-19"></path>
                    <polygon id="Stroke-21" points="58.6958478 25.4347826 60.6523696 25.4347826 60.6523696 41.0869565 45.0001957 41.0869565 45.0001957 39.1304348"></polygon>
                    <polyline id="Stroke-23" points="76.3045435 86.0869565 80.217587 86.0869565 88.0436739 81.2054348 80.217587 76.3043478 76.3045435 76.3043478"></polyline>
                    <polyline id="Stroke-25" points="78.2610652 76.3043478 9.78280435 76.3043478 9.78280435 86.0869565 78.2610652 86.0869565"></polyline>
                    <path d="M76.3045435,86.0869565 L76.3045435,76.3043478" id="Stroke-27"></path>
                    <path d="M9.78280435,76.3043478 L3.91323913,76.3043478 C2.83323913,76.3043478 1.95671739,77.1808696 1.95671739,78.2608696 L1.95671739,84.1304348 C1.95671739,85.2104348 2.83323913,86.0869565 3.91323913,86.0869565 L9.78280435,86.0869565" id="Stroke-29"></path>
                </g>
            </g>
        </g>
    </g>
</svg>