<?xml version="1.0" encoding="UTF-8"?>
<svg width="32px" height="32px" viewBox="0 0 32 32" version="1.1" xmlns="http://www.w3.org/2000/svg" xmlns:xlink="http://www.w3.org/1999/xlink">
    <!-- Generator: Sketch 49.3 (51167) - http://www.bohemiancoding.com/sketch -->
    <title>Componenets / icon / Social / LinkedIn@1x</title>
    <desc>Created with Sketch.</desc>
    <defs></defs>
    <g id="Componenets-/-icon-/-Social-/-LinkedIn" stroke="none" stroke-width="1" fill="none" fill-rule="evenodd">
        <g id="Group" transform="translate(4.000000, 5.000000)" fill="#000000">
            <rect id="Rectangle-path" x="0.380952381" y="7.42857143" width="5.12114286" height="15.3788571"></rect>
            <path d="M22.304381,8.84514286 C21.2287619,7.67085714 19.8059048,7.08361905 18.0369524,7.08361905 C17.3851429,7.08361905 16.7927619,7.16380952 16.2598095,7.32419048 C15.7270476,7.48457143 15.2771429,7.70952381 14.9097143,7.9992381 C14.5424762,8.28895238 14.2500952,8.55790476 14.0329524,8.80609524 C13.8264762,9.04190476 13.6247619,9.31638095 13.427619,9.62704762 L13.427619,7.44019048 L8.32190476,7.44019048 L8.33752381,8.18514286 C8.348,8.68190476 8.35314286,10.2129524 8.35314286,12.7786667 C8.35314286,15.3445714 8.34285714,18.6912381 8.32209524,22.8192381 L13.427619,22.8192381 L13.427619,14.2373333 C13.427619,13.7097143 13.484381,13.2908571 13.5982857,12.9801905 C13.8158095,12.452381 14.1438095,12.0102857 14.5838095,11.6535238 C15.023619,11.296381 15.5693333,11.1179048 16.2211429,11.1179048 C17.1108571,11.1179048 17.7653333,11.4257143 18.184381,12.0413333 C18.6032381,12.6567619 18.8127619,13.5078095 18.8127619,14.5940952 L18.8127619,22.8188571 L23.9184762,22.8188571 L23.9184762,14.0047619 C23.9180952,11.7388571 23.380381,10.0190476 22.304381,8.84514286 L22.304381,8.84514286 Z" id="Shape"></path>
            <path d="M2.96819048,0.0379047619 C2.10952381,0.0379047619 1.41390476,0.288952381 0.880952381,0.790666667 C0.348,1.29238095 0.0817142857,1.92590476 0.0817142857,2.69161905 C0.0817142857,3.44666667 0.340380952,4.07790476 0.857714286,4.5847619 C1.37485714,5.09161905 2.05771429,5.34514286 2.90609524,5.34514286 L2.93714286,5.34514286 C3.80628571,5.34514286 4.5072381,5.09180952 5.04,4.5847619 C5.5727619,4.07790476 5.83390476,3.44685714 5.82361905,2.69161905 C5.81333333,1.92590476 5.54933333,1.29238095 5.03219048,0.790666667 C4.51504762,0.288761905 3.82685714,0.0379047619 2.96819048,0.0379047619 L2.96819048,0.0379047619 Z" id="Shape"></path>
        </g>
    </g>
</svg>