<?xml version="1.0" encoding="UTF-8"?>
<svg width="32px" height="32px" viewBox="0 0 32 32" version="1.1" xmlns="http://www.w3.org/2000/svg" xmlns:xlink="http://www.w3.org/1999/xlink">
    <!-- Generator: Sketch 49.3 (51167) - http://www.bohemiancoding.com/sketch -->
    <title>Components / icon / ui / map-pin@1x</title>
    <desc>Created with Sketch.</desc>
    <defs></defs>
    <g id="Components-/-icon-/-ui-/-map-pin" stroke="none" stroke-width="1" fill="none" fill-rule="evenodd">
        <g id="ic_place">
            <g id="Icon-24px">
                <path d="M16,2.66666667 C10.84,2.66666667 6.66666667,6.84 6.66666667,12 C6.66666667,19 16,29.3333333 16,29.3333333 C16,29.3333333 25.3333333,19 25.3333333,12 C25.3333333,6.84 21.16,2.66666667 16,2.66666667 L16,2.66666667 Z M16,15.3333333 C14.16,15.3333333 12.6666667,13.84 12.6666667,12 C12.6666667,10.16 14.16,8.66666667 16,8.66666667 C17.84,8.66666667 19.3333333,10.16 19.3333333,12 C19.3333333,13.84 17.84,15.3333333 16,15.3333333 L16,15.3333333 Z" id="Shape" fill="#004A7F"></path>
                <polygon id="Shape" points="0 0 32 0 32 32 0 32"></polygon>
            </g>
        </g>
    </g>
</svg>