<?xml version="1.0" encoding="UTF-8"?>
<svg width="32px" height="32px" viewBox="0 0 32 32" version="1.1" xmlns="http://www.w3.org/2000/svg" xmlns:xlink="http://www.w3.org/1999/xlink">
    <!-- Generator: Sketch 49.3 (51167) - http://www.bohemiancoding.com/sketch -->
    <title>Components / icon / ui / opening-times@1x</title>
    <desc>Created with Sketch.</desc>
    <defs></defs>
    <g id="Components-/-icon-/-ui-/-opening-times" stroke="none" stroke-width="1" fill="none" fill-rule="evenodd">
        <g id="ic_time">
            <g id="Icon-24px">
                <g id="Group" transform="translate(3.000000, 4.000000)" fill="#004A7F">
                    <path d="M24.18,6.51898413 C23.0254762,4.54092063 21.4592857,2.97473016 19.4812222,1.82020635 C17.502746,0.66568254 15.3428889,0.0885238095 13.0002063,0.0885238095 C10.6577302,0.0885238095 8.49725397,0.66568254 6.51919048,1.82020635 C4.54092063,2.97452381 2.97473016,4.54071429 1.82020635,6.51898413 C0.66547619,8.49725397 0.0883174603,10.6577302 0.0883174603,13 C0.0883174603,15.3424762 0.66568254,17.5025397 1.82,19.4810159 C2.97452381,21.458873 4.54071429,23.0252698 6.51898413,24.1797937 C8.49725397,25.3343175 10.6575238,25.9114762 13,25.9114762 C15.3424762,25.9114762 17.5029524,25.3343175 19.4810159,24.1797937 C21.4590794,23.0254762 23.0252698,21.4590794 24.1797937,19.4810159 C25.3341111,17.502746 25.9112698,15.3422698 25.9112698,13 C25.9112698,10.6575238 25.3341111,8.49704762 24.18,6.51898413 L24.18,6.51898413 Z M20.9184444,17.589619 C20.1002698,18.9905238 18.9907302,20.1002698 17.589619,20.9184444 C16.1887143,21.736619 14.6588413,22.1453968 13,22.1453968 C11.3413651,22.1453968 9.81149206,21.736619 8.41038095,20.9184444 C7.00947619,20.1002698 5.89993651,18.9905238 5.0817619,17.589619 C4.26338095,16.1887143 3.85439683,14.6588413 3.85439683,13 C3.85439683,11.3411587 4.2635873,9.81128571 5.0817619,8.41038095 C5.89973016,7.00947619 7.00947619,5.89973016 8.41038095,5.08155556 C9.81128571,4.26338095 11.3411587,3.85439683 13,3.85439683 C14.6588413,3.85439683 16.1887143,4.26338095 17.589619,5.08155556 C18.9907302,5.89973016 20.1002698,7.00947619 20.9184444,8.41038095 C21.736619,9.81128571 22.1453968,11.3411587 22.1453968,13 C22.1453968,14.6588413 21.736619,16.1887143 20.9184444,17.589619 L20.9184444,17.589619 Z" id="Shape"></path>
                    <path d="M14.6140635,6.54415873 L13.5379524,6.54415873 C13.3807143,6.54415873 13.2521587,6.59471429 13.1510476,6.6954127 C13.0505556,6.79631746 13,6.92507937 13,7.08211111 L13,13 L9.23412698,13 C9.07709524,13 8.94833333,13.0503492 8.84742857,13.1510476 C8.74652381,13.251746 8.6961746,13.3807143 8.6961746,13.5379524 L8.6961746,14.6138571 C8.6961746,14.7708889 8.74652381,14.8996508 8.84742857,15.0005556 C8.94833333,15.101254 9.07730159,15.1516032 9.23412698,15.1516032 L14.6142698,15.1516032 C14.7710952,15.1516032 14.9000635,15.101254 15.0005556,15.0005556 C15.101254,14.8996508 15.1520159,14.7708889 15.1520159,14.6138571 L15.1520159,7.08211111 C15.1520159,6.92528571 15.101254,6.79652381 15.0005556,6.6954127 C14.8998571,6.59471429 14.7708889,6.54415873 14.6140635,6.54415873 L14.6140635,6.54415873 Z" id="Shape"></path>
                </g>
                <polygon id="Shape" points="0 0 32 0 32 32 0 32"></polygon>
            </g>
        </g>
    </g>
</svg>