<?xml version="1.0" encoding="UTF-8"?>
<svg width="32px" height="32px" viewBox="0 0 32 32" version="1.1" xmlns="http://www.w3.org/2000/svg" xmlns:xlink="http://www.w3.org/1999/xlink">
    <!-- Generator: Sketch 49.3 (51167) - http://www.bohemiancoding.com/sketch -->
    <title>Components / icon / ui / phone@1x</title>
    <desc>Created with Sketch.</desc>
    <defs></defs>
    <g id="Components-/-icon-/-ui-/-phone" stroke="none" stroke-width="1" fill="none" fill-rule="evenodd">
        <g id="ic_pjone">
            <g id="Icon-24px">
                <path d="M26.6532281,21.6931727 C26.4377282,21.5680572 26.1305884,21.3977495 25.7332735,21.1818311 C25.3353309,20.9659127 24.9744208,20.7669414 24.6507524,20.5849172 C24.3266656,20.4033114 24.0226643,20.2269362 23.7387483,20.0568377 C23.6933469,20.0227343 23.5512843,19.9233533 23.3125606,19.7584854 C23.0738369,19.5938267 22.8723549,19.4716403 22.7072778,19.3919263 C22.5426191,19.3124214 22.3806803,19.272669 22.2214614,19.272669 C21.9942449,19.272669 21.710329,19.4346078 21.3695043,19.7584854 C21.0286797,20.082363 20.7161002,20.4344857 20.4321842,20.8154812 C20.1480591,21.1962675 19.8469868,21.5483902 19.5289675,21.8722678 C19.2107389,22.1963546 18.9492099,22.3580842 18.7447988,22.3580842 C18.6424886,22.3580842 18.514444,22.3296298 18.3610833,22.2731395 C18.2079319,22.21644 18.0913946,22.167691 18.0114713,22.128357 C17.9321757,22.0883954 17.7959714,22.0090998 17.6026491,21.8894241 C17.4091176,21.7701669 17.3013676,21.70468 17.2787715,21.6931727 C15.7219414,20.8294992 14.3866786,19.8407101 13.2729833,18.727224 C12.1594972,17.6135287 11.1707082,16.278266 10.3070346,14.7214358 C10.2957366,14.6986305 10.2302497,14.5906713 10.1109925,14.3975582 C9.99152599,14.204236 9.91202115,14.0680316 9.87226874,13.9883176 C9.83251632,13.9088127 9.78418575,13.7922754 9.72748625,13.6389148 C9.67078676,13.4855541 9.64233239,13.3577187 9.64233239,13.2554086 C9.64233239,13.0509975 9.80427118,12.7894684 10.1281488,12.4712399 C10.4520263,12.1532205 10.8043583,11.8519391 11.1849354,11.5680231 C11.5657217,11.2841072 11.9178444,10.9715277 12.241722,10.630703 C12.5655995,10.2896691 12.7275383,10.0057532 12.7275383,9.77853673 C12.7275383,9.61952706 12.6877859,9.45737905 12.6082811,9.29272036 C12.5287762,9.12764322 12.4065899,8.92616124 12.241722,8.68743752 C12.076854,8.4487138 11.977473,8.30686044 11.9433696,8.26124977 C11.7730619,7.97733383 11.5971051,7.67333246 11.4150809,7.34945488 C11.2330567,7.02557731 11.0342946,6.66466721 10.8183762,6.26693383 C10.6024579,5.86940967 10.4321501,5.56247917 10.3070346,5.34656079 C9.90930125,4.55130324 9.60822901,4.11925725 9.40360868,4.05125969 C9.32410384,4.01715631 9.20463737,4 9.04562771,4 C8.73869721,4 8.33824393,4.0566995 7.84384941,4.17051694 C7.34945488,4.28412516 6.96029965,4.40338241 6.67617449,4.52849791 C6.10792416,4.76701241 5.50577967,5.46016901 4.86932257,6.60775849 C4.28977419,7.67584314 4,8.73283896 4,9.7783275 C4,10.0848396 4.01987621,10.3831919 4.05962862,10.6731753 C4.09938104,10.9629495 4.17051694,11.2897562 4.27282711,11.6533862 C4.37513727,12.0170162 4.45757123,12.2871234 4.51991976,12.4630801 C4.58226828,12.6390369 4.69880563,12.9543363 4.86932257,13.4089784 C5.03963029,13.8636205 5.14194046,14.1418874 5.17604384,14.2441976 C5.57377723,15.3578929 6.04536642,16.3521218 6.59081141,17.2273026 C7.48816989,18.6818226 8.71275353,20.1848823 10.2639346,21.7360635 C11.8151158,23.2872446 13.3179663,24.5118282 14.7726955,25.4096051 C15.6476671,25.9548409 16.6423144,26.4266393 17.7558005,26.8245819 C17.8581107,26.8584761 18.1365868,26.9607863 18.5910197,27.1315124 C19.0454526,27.3018202 19.3609612,27.4183575 19.536918,27.4809152 C19.7128747,27.543473 19.9829819,27.625907 20.3464027,27.7282171 C20.7104511,27.8305273 21.0370486,27.9016632 21.3268228,27.9416248 C21.616597,27.9809588 21.9149493,28.0012534 22.2216706,28.0012534 C23.2669499,28.0012534 24.3239457,27.71127 25.3922396,27.1319309 C26.5396199,26.4954738 27.2327765,25.8931201 27.4715002,25.3246605 C27.5968249,25.0409538 27.7158729,24.6515893 27.8294812,24.1571948 C27.9432986,23.6630095 27.9999981,23.2625562 27.9999981,22.9556257 C28.0002073,22.7959884 27.983051,22.6767312 27.9487384,22.5965987 C27.8807409,22.3919783 27.4489041,22.0906969 26.6532281,21.6931727 Z" id="Shape" fill="#004A7F"></path>
                <polygon id="Shape" points="0 0 32 0 32 32 0 32"></polygon>
            </g>
        </g>
    </g>
</svg>