<?xml version="1.0" encoding="UTF-8"?>
<svg width="45px" height="39px" viewBox="0 0 45 39" version="1.1" xmlns="http://www.w3.org/2000/svg" xmlns:xlink="http://www.w3.org/1999/xlink">
    <!-- Generator: Sketch 49.3 (51167) - http://www.bohemiancoding.com/sketch -->
    <title>quote mark01</title>
    <desc>Created with Sketch.</desc>
    <defs></defs>
    <g id="Screens-" stroke="none" stroke-width="1" fill="none" fill-rule="evenodd">
        <g id="Artboard" transform="translate(-130.000000, -329.000000)" fill="#E1A900">
            <path d="M150.780255,368 L130,368 L130,351.988971 C130,346.094333 131.226102,341.442419 133.678344,338.033088 C136.130586,334.623757 140.334365,331.612758 146.289809,329 L150.780255,337.507353 C147.117816,339.22795 144.585994,340.940555 143.184713,342.645221 C141.783432,344.349886 141.003186,346.365184 140.843949,348.691176 L150.780255,348.691176 L150.780255,368 Z M175,368 L154.219745,368 L154.219745,351.988971 C154.219745,346.094333 155.445848,341.442419 157.898089,338.033088 C160.350331,334.623757 164.55411,331.612758 170.509554,329 L175,337.507353 C171.337561,339.22795 168.805739,340.940555 167.404459,342.645221 C166.003178,344.349886 165.222931,346.365184 165.063694,348.691176 L175,348.691176 L175,368 Z" id="quote-mark01"></path>
        </g>
    </g>
</svg>