<?xml version="1.0" encoding="UTF-8"?>
<svg width="45px" height="39px" viewBox="0 0 45 39" version="1.1" xmlns="http://www.w3.org/2000/svg" xmlns:xlink="http://www.w3.org/1999/xlink">
    <!-- Generator: Sketch 49.3 (51167) - http://www.bohemiancoding.com/sketch -->
    <title>quote mark02</title>
    <desc>Created with Sketch.</desc>
    <defs></defs>
    <g id="Screens-" stroke="none" stroke-width="1" fill="none" fill-rule="evenodd">
        <g id="Artboard" transform="translate(-245.000000, -329.000000)" fill="#E1A900">
            <path d="M265.780255,368 L245,368 L245,351.988971 C245,346.094333 246.226102,341.442419 248.678344,338.033088 C251.130586,334.623757 255.334365,331.612758 261.289809,329 L265.780255,337.507353 C262.117816,339.22795 259.585994,340.940555 258.184713,342.645221 C256.783432,344.349886 256.003186,346.365184 255.843949,348.691176 L265.780255,348.691176 L265.780255,368 Z M290,368 L269.219745,368 L269.219745,351.988971 C269.219745,346.094333 270.445848,341.442419 272.898089,338.033088 C275.350331,334.623757 279.55411,331.612758 285.509554,329 L290,337.507353 C286.337561,339.22795 283.805739,340.940555 282.404459,342.645221 C281.003178,344.349886 280.222931,346.365184 280.063694,348.691176 L290,348.691176 L290,368 Z" id="quote-mark02" transform="translate(267.500000, 348.500000) scale(-1, -1) translate(-267.500000, -348.500000) "></path>
        </g>
    </g>
</svg>