<?xml version="1.0" encoding="UTF-8"?>
<svg width="32px" height="32px" viewBox="0 0 32 32" version="1.1" xmlns="http://www.w3.org/2000/svg" xmlns:xlink="http://www.w3.org/1999/xlink">
    <!-- Generator: Sketch 49.3 (51167) - http://www.bohemiancoding.com/sketch -->
    <title>Componenets / icon / social / Twitter@1x</title>
    <desc>Created with Sketch.</desc>
    <defs></defs>
    <g id="Componenets-/-icon-/-social-/-Twitter" stroke="none" stroke-width="1" fill="none" fill-rule="evenodd">
        <path d="M29,8.41119617 C28.0165575,8.83428478 27.0327256,9.09849612 26.0496725,9.204609 C27.1600611,8.53833693 27.9110287,7.59714488 28.3023808,6.38103286 C27.2868124,6.9836372 26.2029034,7.39601716 25.0502644,7.61817276 C24.0348907,6.53952072 22.7872369,6 21.3065241,6 C19.8894791,6 18.6813498,6.4996067 17.681747,7.49901481 C16.6823389,8.49842291 16.1827322,9.70655213 16.1827322,11.1235972 C16.1827322,11.5042406 16.2249827,11.8955927 16.3096783,12.2974587 C14.2156525,12.1917353 12.2512987,11.665649 10.416422,10.7192 C8.58154532,9.77255629 7.02431445,8.51146798 5.7447294,6.93574038 C5.27939035,7.72876379 5.04672082,8.59071191 5.04672082,9.52139002 C5.04672082,10.399109 5.2529108,11.2135497 5.66548547,11.9643227 C6.07786544,12.7150957 6.63315706,13.3231517 7.33116565,13.7884907 C6.50621101,13.7567542 5.73421547,13.5398556 5.01517901,13.1379896 L5.01517901,13.2014626 C5.01517901,14.4387972 5.40380527,15.5252373 6.18105778,16.4613671 C6.95831029,17.3974969 7.93922166,17.9868615 9.12359717,18.2300449 C8.67948069,18.3462823 8.22991254,18.4044984 7.77528212,18.4044984 C7.47913957,18.4044984 7.15651747,18.3780189 6.80761053,18.3254492 C7.1354896,19.3511421 7.73828864,20.1943988 8.61600766,20.8554139 C9.49372668,21.5166237 10.4878778,21.8573531 11.5982664,21.8787704 C9.73710485,23.3378712 7.61679426,24.0676163 5.2373346,24.0676163 C4.78250948,24.0676163 4.37012952,24.0467831 4,24.004338 C6.37945966,25.5376204 9.00210279,26.3041643 11.8681241,26.3041643 C13.6870351,26.3041643 15.3949658,26.0161993 16.9915265,25.4398798 C18.5886714,24.8635603 19.9527574,24.0915647 21.0843685,23.1236984 C22.2157849,22.1562215 23.1914393,21.0431071 24.0109423,19.78455 C24.8304452,18.5261875 25.4410324,17.2123348 25.8430931,15.8427972 C26.2449592,14.4730649 26.4458922,13.1011908 26.4458922,11.7262015 C26.4458922,11.430059 26.4406352,11.2080981 26.4299266,11.0599294 C27.4347863,10.3305737 28.2914775,9.44740306 29,8.41119617 L29,8.41119617 Z" id="Shape" fill="#000000"></path>
    </g>
</svg>